<?xml version="1.0" encoding="UTF-8" standalone="no"?>
<!DOCTYPE svg PUBLIC "-//W3C//DTD SVG 1.1//EN" "http://www.w3.org/Graphics/SVG/1.1/DTD/svg11.dtd">
<svg width="100%" height="100%" viewBox="0 0 33 24" version="1.1" xmlns="http://www.w3.org/2000/svg" xmlns:xlink="http://www.w3.org/1999/xlink" xml:space="preserve" xmlns:serif="http://www.serif.com/" style="fill-rule:evenodd;clip-rule:evenodd;stroke-linejoin:round;stroke-miterlimit:2;">
    <g transform="matrix(1,0,0,1,-326.165,-181.232)">
        <g transform="matrix(1,0,0,1,-366.958,-275)">
            <g transform="matrix(0.387212,0,0,0.387212,377.543,239.94)">
                <path d="M899.638,614.373C899.638,617.134 897.399,619.373 894.638,619.373L845.401,619.373C844.075,619.373 842.803,618.846 841.866,617.908L816.473,592.515C814.52,590.563 814.52,587.397 816.473,585.444L841.866,560.052C842.803,559.114 844.075,558.587 845.401,558.587L894.638,558.587C897.399,558.587 899.638,560.826 899.638,563.587L899.638,614.373ZM851.25,600.581L857.551,606.808L868.819,595.318L880.123,606.808L886.424,600.581L875.046,588.98L886.424,577.379L880.123,571.152L868.819,582.679L857.551,571.152L851.25,577.379L862.629,588.98L851.25,600.581Z" style="fill:rgb(243,243,243);"/>
            </g>
        </g>
    </g>
</svg>
